name rise34.3697peak60.0498fall86.3158.mot
datacolumns 19
datarows 15
range 20.52658600000000 20.54992300000000
endheader
time	ground_force1_vx	ground_force1_vy	ground_force1_vz	ground_force1_px	ground_force1_py	ground_force1_pz	ground_force2_vx	ground_force2_vy	ground_force2_vz	ground_force2_px	ground_force2_py	ground_force2_pz	ground_torque1_x	ground_torque1_y	ground_torque1_z	ground_torque2_x	ground_torque2_y	ground_torque2_z	
20.52658600000000	53.20384200000000	766.50759800000003	59.34452400000000	0.39086500000000	0.00000000000000	0.09692400000000	0.00000000000000	0.00000000000000	0.00000000000000	0.00000000000000	0.00000000000000	0.00000000000000	0.00000000000000	34.88748600000000	0.00000000000000	0.00000000000000	0.00000000000000	0.00000000000000	
20.52825800000000	52.53109400000000	769.09082000000001	59.52832500000000	0.38934800000000	0.00000000000000	0.09695500000000	0.00000000000000	0.00000000000000	0.00000000000000	0.00000000000000	0.00000000000000	0.00000000000000	0.00000000000000	34.96652400000000	0.00000000000000	0.00000000000000	0.00000000000000	0.00000000000000	
20.52992400000000	51.86494100000000	771.57217400000002	59.71456200000000	0.38784800000000	0.00000000000000	0.09698500000000	0.00000000000000	0.00000000000000	0.00000000000000	0.00000000000000	0.00000000000000	0.00000000000000	0.00000000000000	35.04758100000000	0.00000000000000	0.00000000000000	0.00000000000000	0.00000000000000	
20.53159100000000	51.20575500000000	773.94954299999995	59.90276400000000	0.38636700000000	0.00000000000000	0.09701600000000	0.00000000000000	0.00000000000000	0.00000000000000	0.00000000000000	0.00000000000000	0.00000000000000	0.00000000000000	35.13039500000000	0.00000000000000	0.00000000000000	0.00000000000000	0.00000000000000	
20.53326200000000	50.55383300000000	776.22083299999997	60.09238000000000	0.38490600000000	0.00000000000000	0.09704600000000	0.00000000000000	0.00000000000000	0.00000000000000	0.00000000000000	0.00000000000000	0.00000000000000	0.00000000000000	35.21465000000000	0.00000000000000	0.00000000000000	0.00000000000000	0.00000000000000	
20.53492200000000	49.90940400000000	778.38399000000004	60.28278400000000	0.38346500000000	0.00000000000000	0.09707600000000	0.00000000000000	0.00000000000000	0.00000000000000	0.00000000000000	0.00000000000000	0.00000000000000	0.00000000000000	35.29997700000000	0.00000000000000	0.00000000000000	0.00000000000000	0.00000000000000	
20.53658900000000	49.27262800000000	780.43701299999998	60.47327800000000	0.38204600000000	0.00000000000000	0.09710500000000	0.00000000000000	0.00000000000000	0.00000000000000	0.00000000000000	0.00000000000000	0.00000000000000	0.00000000000000	35.38596000000000	0.00000000000000	0.00000000000000	0.00000000000000	0.00000000000000	
20.53825800000000	48.64360300000000	782.37797100000000	60.66310400000000	0.38064900000000	0.00000000000000	0.09713300000000	0.00000000000000	0.00000000000000	0.00000000000000	0.00000000000000	0.00000000000000	0.00000000000000	0.00000000000000	35.47214000000000	0.00000000000000	0.00000000000000	0.00000000000000	0.00000000000000	
20.53992700000000	48.02237000000000	784.20502099999999	60.85144500000000	0.37927500000000	0.00000000000000	0.09716000000000	0.00000000000000	0.00000000000000	0.00000000000000	0.00000000000000	0.00000000000000	0.00000000000000	0.00000000000000	35.55802100000000	0.00000000000000	0.00000000000000	0.00000000000000	0.00000000000000	
20.54158400000000	47.40891000000000	785.91642200000001	61.03743700000000	0.37792600000000	0.00000000000000	0.09718700000000	0.00000000000000	0.00000000000000	0.00000000000000	0.00000000000000	0.00000000000000	0.00000000000000	0.00000000000000	35.64307300000000	0.00000000000000	0.00000000000000	0.00000000000000	0.00000000000000	
20.54326000000000	46.80315700000000	787.51054799999997	61.22017400000000	0.37660000000000	0.00000000000000	0.09721200000000	0.00000000000000	0.00000000000000	0.00000000000000	0.00000000000000	0.00000000000000	0.00000000000000	0.00000000000000	35.72674000000000	0.00000000000000	0.00000000000000	0.00000000000000	0.00000000000000	
20.54492700000000	46.20499600000000	788.98590700000000	61.39871700000000	0.37530000000000	0.00000000000000	0.09723500000000	0.00000000000000	0.00000000000000	0.00000000000000	0.00000000000000	0.00000000000000	0.00000000000000	0.00000000000000	35.80844200000000	0.00000000000000	0.00000000000000	0.00000000000000	0.00000000000000	
20.54659200000000	45.61427000000000	790.34114999999997	61.57209900000000	0.37402500000000	0.00000000000000	0.09725700000000	0.00000000000000	0.00000000000000	0.00000000000000	0.00000000000000	0.00000000000000	0.00000000000000	0.00000000000000	35.88758000000000	0.00000000000000	0.00000000000000	0.00000000000000	0.00000000000000	
20.54825100000000	45.03078500000000	791.57508399999995	61.73933700000000	0.37277500000000	0.00000000000000	0.09727700000000	0.00000000000000	0.00000000000000	0.00000000000000	0.00000000000000	0.00000000000000	0.00000000000000	0.00000000000000	35.96354500000000	0.00000000000000	0.00000000000000	0.00000000000000	0.00000000000000	
20.54992300000000	44.45431200000000	792.68668900000000	61.89943700000000	0.37155100000000	0.00000000000000	0.09729500000000	0.00000000000000	0.00000000000000	0.00000000000000	0.00000000000000	0.00000000000000	0.00000000000000	0.00000000000000	36.03571600000000	0.00000000000000	0.00000000000000	0.00000000000000	0.00000000000000	
